<svg id="Camada_1" data-name="Camada 1" xmlns="http://www.w3.org/2000/svg" viewBox="0 0 500 500"><defs><style>.cls-1{fill:#6298f0;}</style></defs><title>Prancheta 1</title><path class="cls-1" d="M488.33,249.8c0-31.57-39.54-61.5-100.17-80.06,14-61.79,7.78-111-19.62-126.69a42.64,42.64,0,0,0-21.77-5.44V59.28a22.53,22.53,0,0,1,11.08,2.52c13.21,7.58,18.95,36.44,14.48,73.55-1.07,9.13-2.82,18.75-5,28.57a469.33,469.33,0,0,0-61.69-10.59,473.48,473.48,0,0,0-40.42-48.58c31.67-29.44,61.4-45.57,81.61-45.57V37.51c-26.72,0-61.69,19.05-97.06,52.08C214.45,56.75,179.47,37.9,152.75,37.9V59.57c20.11,0,49.94,16,81.61,45.27a459.2,459.2,0,0,0-40.12,48.49A453.81,453.81,0,0,0,132.44,164c-2.23-9.71-3.88-19.14-5-28.17-4.56-37.12,1.07-66,14.19-73.65,2.91-1.75,6.7-2.52,11.17-2.52V38a43.37,43.37,0,0,0-22,5.44c-27.3,15.74-33.42,64.8-19.33,126.4C51,188.5,11.68,218.32,11.68,249.8s39.54,61.5,100.17,80.06c-14,61.79-7.78,111,19.62,126.69,6.32,3.7,13.7,5.45,21.86,5.45,26.72,0,61.7-19.05,97.06-52.08,35.37,32.84,70.35,51.69,97.06,51.69a43.32,43.32,0,0,0,22-5.44c27.3-15.74,33.42-64.81,19.34-126.41,60.23-18.55,99.58-48.48,99.58-80ZM361.83,185c-3.59,12.53-8.06,25.45-13.11,38.38-4-7.78-8.16-15.55-12.73-23.32s-9.23-15.35-14-22.74c13.8,2,27.11,4.57,39.83,7.68ZM317.34,288.47C309.76,301.59,302,314,293.92,325.59c-14.48,1.26-29.15,1.94-43.91,1.94s-29.35-.68-43.73-1.85q-12.09-17.34-23.51-36.92c-7.38-12.72-14.09-25.65-20.21-38.67,6-13,12.83-26,20.12-38.76,7.57-13.12,15.35-25.55,23.41-37.12,14.48-1.26,29.15-1.94,43.92-1.94s29.34.68,43.72,1.85q12.09,17.34,23.51,36.92c7.38,12.72,14.09,25.65,20.21,38.67-6.12,13-12.83,26-20.11,38.76Zm31.38-12.63c5.24,13,9.71,26,13.41,38.67-12.73,3.11-26.14,5.73-40,7.77,4.76-7.48,9.52-15.15,14-23s8.64-15.65,12.63-23.42ZM250.2,379.51a400,400,0,0,1-27-31.09c8.74.39,17.68.68,26.72.68s18.17-.2,27-.68A380.12,380.12,0,0,1,250.2,379.51Zm-72.29-57.23c-13.79-2-27.1-4.56-39.83-7.67,3.59-12.54,8.06-25.46,13.12-38.38,4,7.77,8.16,15.54,12.72,23.32S173.15,314.9,177.91,322.28Zm71.8-202.18a396,396,0,0,1,27,31.09c-8.74-.39-17.68-.68-26.71-.68s-18.17.19-27,.68A378.4,378.4,0,0,1,249.71,120.1Zm-71.89,57.22c-4.76,7.48-9.52,15.16-14,23s-8.65,15.54-12.63,23.32c-5.25-13-9.72-26-13.41-38.67,12.73-3,26.13-5.64,40-7.68ZM89.89,299c-34.39-14.67-56.64-33.9-56.64-49.16s22.25-34.59,56.64-49.16c8.36-3.59,17.49-6.8,26.91-9.81A468.22,468.22,0,0,0,138.66,250a460,460,0,0,0-21.57,58.87c-9.62-3-18.75-6.31-27.2-9.91ZM142.16,437.8c-13.21-7.58-19-36.43-14.48-73.55,1.07-9.13,2.82-18.75,5-28.56a471,471,0,0,0,61.69,10.59,474.56,474.56,0,0,0,40.42,48.58c-31.67,29.44-61.4,45.57-81.61,45.57a23.27,23.27,0,0,1-11-2.63Zm230.46-74c4.56,37.11-1.07,66-14.19,73.64-2.91,1.75-6.7,2.53-11.17,2.53-20.11,0-49.94-16-81.61-45.28a458,458,0,0,0,40.12-48.48,453.81,453.81,0,0,0,61.8-10.68A273.13,273.13,0,0,1,372.62,363.77ZM410,299c-8.35,3.6-17.48,6.81-26.91,9.82a465.55,465.55,0,0,0-21.86-59.17,459.58,459.58,0,0,0,21.57-58.88c9.62,3,18.75,6.32,27.3,9.91,34.4,14.67,56.64,33.91,56.64,49.16S444.42,284.39,410,299Z"/><circle class="cls-1" cx="249.91" cy="249.8" r="44.4"/></svg>